<svg xmlns="http://www.w3.org/2000/svg" viewBox="0 0 100 100" preserveAspectRatio="xMidYMid" width="171" height="171" style="shape-rendering: auto; display: block; background: transparent;" xmlns:xlink="http://www.w3.org/1999/xlink"><g><g transform="translate(50 50)">
<g>
<animateTransform repeatCount="indefinite" dur="3.4482758620689653s" keyTimes="0;1" values="0;45" type="rotate" attributeName="transform"></animateTransform><path fill="rgba(91, 188, 225, 0.947)" d="M28.473672049807696 -5.5 L37.473672049807696 -5.5 L37.473672049807696 5.5 L28.473672049807696 5.5 A29 29 0 0 1 24.023013888226895 16.24483929517487 L24.023013888226895 16.24483929517487 L30.38697491890582 22.6088003258538 L22.6088003258538 30.38697491890582 L16.244839295174874 24.023013888226895 A29 29 0 0 1 5.500000000000002 28.473672049807696 L5.500000000000002 28.473672049807696 L5.500000000000002 37.473672049807696 L-5.499999999999999 37.473672049807696 L-5.499999999999999 28.473672049807696 A29 29 0 0 1 -16.24483929517487 24.0230138882269 L-16.24483929517487 24.0230138882269 L-22.6088003258538 30.38697491890583 L-30.38697491890582 22.6088003258538 L-24.023013888226895 16.244839295174874 A29 29 0 0 1 -28.473672049807696 5.5000000000000036 L-28.473672049807696 5.5000000000000036 L-37.473672049807696 5.500000000000004 L-37.473672049807696 -5.4999999999999964 L-28.473672049807696 -5.499999999999997 A29 29 0 0 1 -24.0230138882269 -16.244839295174867 L-24.0230138882269 -16.244839295174867 L-30.38697491890583 -22.608800325853792 L-22.608800325853817 -30.38697491890581 L-16.244839295174888 -24.023013888226885 A29 29 0 0 1 -5.499999999999993 -28.4736720498077 L-5.499999999999993 -28.4736720498077 L-5.499999999999995 -37.4736720498077 L5.499999999999981 -37.4736720498077 L5.499999999999983 -28.4736720498077 A29 29 0 0 1 16.244839295174877 -24.02301388822689 L16.244839295174877 -24.02301388822689 L22.608800325853803 -30.38697491890582 L30.38697491890581 -22.608800325853817 L24.023013888226885 -16.244839295174888 A29 29 0 0 1 28.473672049807696 -5.499999999999995 M0 -20A20 20 0 1 0 0 20 A20 20 0 1 0 0 -20"></path></g></g><g></g></g><!-- [ldio] generated by https://loading.io --></svg>